<?xml version="1.0" encoding="UTF-8"?>
<!DOCTYPE svg PUBLIC "-//W3C//DTD SVG 1.1//EN" "http://www.w3.org/Graphics/SVG/1.1/DTD/svg11.dtd">
<!-- Creator: CorelDRAW X7 -->
<svg xmlns="http://www.w3.org/2000/svg" xml:space="preserve" width="65.024mm" height="21.6746mm" version="1.1" style="shape-rendering:geometricPrecision; text-rendering:geometricPrecision; image-rendering:optimizeQuality; fill-rule:evenodd; clip-rule:evenodd"
viewBox="0 0 6502 2167"
 xmlns:xlink="http://www.w3.org/1999/xlink">
 <defs>
  <style type="text/css">
   <![CDATA[
    .str0 {stroke:white;stroke-width:66.15}
    .fil1 {fill:none}
    .fil3 {fill:navy}
    .fil0 {fill:green}
    .fil2 {fill:maroon}
   ]]>
  </style>
 </defs>
 <g id="Слой_x0020_1">
  <metadata id="CorelCorpID_0Corel-Layer"/>
  <g id="_1641569107824">
   <circle class="fil0 str0" cx="3251" cy="1084" r="953"/>
   <path class="fil1 str0" d="M4034 1071c-3,8 -6,15 -9,22 -28,87 -113,133 -202,110 -66,-17 -132,-37 -199,-52 -81,-18 -160,-1 -238,22 -7,1 -14,13 -14,20 -7,112 15,218 74,314 20,34 39,68 60,101 56,92 12,222 -99,246 -3,1 -6,3 -9,5 -13,0 -25,0 -37,0 -51,-15 -96,-38 -128,-84 -55,-81 -36,-182 47,-229 15,-8 32,-12 49,-15 31,-6 41,-19 32,-49 -7,-23 -18,-44 -26,-66 -27,-68 -54,-135 -79,-204 -7,-18 -16,-25 -35,-26 -155,-7 -311,-14 -466,-23 -44,-2 -89,-6 -131,-16 -69,-16 -120,-63 -138,-121 240,8 479,16 722,24 -67,-232 -133,-459 -199,-690 61,8 105,37 136,83 20,29 36,62 47,95 52,163 102,327 151,490 6,20 14,27 36,29 84,10 168,22 253,33 10,1 20,3 31,3 27,-1 38,-13 35,-40 -14,-127 105,-196 213,-156 60,22 101,63 117,127 1,4 4,7 6,11 0,12 0,24 0,36zm-175 66c57,0 99,-39 99,-91 0,-46 -48,-90 -100,-90 -51,0 -94,43 -94,94 0,49 41,87 95,87zm-580 550c0,50 44,97 93,97 47,0 84,-39 84,-90 0,-54 -40,-99 -88,-99 -48,0 -89,42 -89,92z"/>
  </g>
  <g id="_1641569106864">
   <circle class="fil2 str0" cx="1084" cy="1084" r="953"/>
   <path class="fil1 str0" d="M1626 1534c-284,112 -254,65 -322,93 -10,3 -211,-107 -287,-113 -77,-7 -369,56 -525,-82 -156,-137 -67,-423 -67,-423 0,0 11,-374 301,-488 243,-94 342,-53 342,-53l343 104 110 88c0,0 177,267 204,300 28,34 233,444 -99,574z"/>
  </g>
  <g id="_1641569104848">
   <circle class="fil3 str0" cx="5419" cy="1084" r="953"/>
   <path class="fil1 str0" d="M5544 399c0,173 0,344 0,518 142,-21 284,-42 427,-63 0,295 0,588 0,882 -338,0 -675,0 -1014,0 0,-445 0,-890 0,-1337 196,0 391,0 587,0z"/>
   <line class="fil1 str0" x1="5971" y1="854" x2="5544" y2= "399" />
  </g>
 </g>
</svg>
