<?xml version="1.0" encoding="UTF-8"?>
<!DOCTYPE svg PUBLIC "-//W3C//DTD SVG 1.1//EN" "http://www.w3.org/Graphics/SVG/1.1/DTD/svg11.dtd">
<!-- Creator: CorelDRAW X7 -->
<svg xmlns="http://www.w3.org/2000/svg" xml:space="preserve" width="43.3492mm" height="43.3492mm" version="1.1" style="shape-rendering:geometricPrecision; text-rendering:geometricPrecision; image-rendering:optimizeQuality; fill-rule:evenodd; clip-rule:evenodd"
viewBox="0 0 4335 4335"
 xmlns:xlink="http://www.w3.org/1999/xlink">
 <defs>
  <style type="text/css">
   <![CDATA[
    .str0 {stroke:white;stroke-width:66.15}
    .fil1 {fill:none}
    .fil0 {fill:navy}
   ]]>
  </style>
 </defs>
 <g id="Слой_x0020_1">
  <metadata id="CorelCorpID_0Corel-Layer"/>
  <g id="_1641513255776">
   <path class="fil0 str0" d="M4297 2167c0,-1176 -954,-2129 -2130,-2129 -1176,0 -2129,953 -2129,2129 0,1176 953,2130 2129,2130 1176,0 2130,-954 2130,-2130z"/>
   <path class="fil1 str0" d="M3177 893c-4,-28 -1,-57 -11,-80 -35,-78 -106,-102 -193,-67 -102,42 -192,103 -276,172 -127,106 -250,219 -375,328 -48,41 -98,80 -149,121 -9,-64 -38,-88 -98,-76 -41,8 -79,25 -119,38 -70,24 -138,56 -209,68 -87,15 -148,55 -196,128 -87,134 -191,257 -299,375 -13,15 -24,34 -31,54 -45,129 -89,258 -132,388 -36,111 -93,217 -90,339 1,10 -13,24 -23,29 -56,30 -112,58 -168,87 -8,4 -12,13 -18,20 9,0 19,3 26,0 54,-27 106,-56 161,-81 30,-14 44,-34 46,-68 2,-39 3,-81 16,-118 65,-197 134,-394 202,-590 5,-14 11,-28 21,-39 120,-129 229,-266 328,-412 32,-47 74,-75 131,-83 90,-14 175,-43 258,-83 32,-16 69,-24 104,-32 23,-4 49,-4 61,21 14,28 6,55 -20,77 -13,11 -25,23 -39,33 -150,104 -301,207 -450,314 -108,77 -212,159 -317,239 -9,7 -14,17 -21,26 2,3 5,5 7,8 8,-5 17,-9 24,-15 21,-18 40,-38 62,-54 146,-103 291,-208 440,-307 195,-129 372,-278 548,-430 60,-52 120,-103 179,-155 37,-31 75,-61 110,-95 83,-77 177,-139 277,-191 25,-13 53,-20 80,-27 41,-10 75,3 102,34 28,32 39,68 17,107 -10,19 -23,38 -39,52 -194,180 -397,350 -579,542 -66,71 -145,130 -219,195 -5,4 -7,11 -11,16 2,3 4,5 6,8 13,-7 26,-11 36,-20 70,-62 144,-121 209,-189 231,-240 482,-457 737,-671 31,-27 68,-38 108,-39 78,-2 132,91 95,169 -14,30 -35,57 -56,83 -61,71 -124,141 -186,210 -178,198 -351,401 -558,571 -30,24 -53,57 -78,86 -7,9 -10,21 -15,32 3,2 6,4 8,6 6,-5 13,-9 18,-15 31,-35 57,-77 94,-105 147,-118 271,-258 399,-395 92,-99 179,-202 268,-303 29,-32 64,-40 99,-23 65,30 92,127 53,186 -97,147 -194,293 -302,432 -88,114 -179,223 -287,318 -34,31 -67,64 -95,101 -44,60 -83,124 -124,186 -4,6 -2,17 -3,25 7,-5 16,-9 21,-15 7,-10 13,-22 19,-32 54,-92 119,-176 196,-251 124,-123 245,-249 367,-373 20,-20 38,-43 59,-62 33,-27 79,-25 98,5 20,32 37,67 24,105 -18,50 -39,100 -66,145 -82,141 -192,261 -298,384 -126,146 -257,287 -352,457 -17,31 -42,61 -69,85 -162,144 -323,290 -489,430 -161,135 -332,254 -535,322 -45,15 -88,38 -132,58 1,4 2,8 3,12 14,-2 28,-2 40,-7 53,-23 104,-50 159,-70 119,-42 225,-107 327,-182 202,-147 387,-314 572,-481 81,-72 145,-155 201,-246 40,-64 86,-125 134,-183 84,-101 172,-199 258,-299 88,-104 174,-209 235,-331 15,-30 27,-62 34,-95 12,-51 -19,-123 -57,-141 -40,-19 -86,-4 -130,44 -15,17 -30,34 -46,51 -2,-7 0,-10 2,-13 84,-122 168,-244 253,-365 25,-36 32,-73 19,-114 -22,-65 -57,-114 -137,-117 9,-11 16,-18 22,-26 20,-33 46,-64 58,-100 36,-106 -49,-200 -157,-174 -34,8 -67,29 -96,49 -31,20 -56,47 -81,69z"/>
   <path class="fil1 str0" d="M3177 893c25,-22 50,-49 81,-69 29,-20 62,-41 96,-49 108,-26 193,68 157,174 -12,36 -38,67 -58,100 -6,8 -13,15 -22,26 79,3 115,52 137,117 13,41 6,78 -19,114 -85,121 -169,243 -253,365 -2,3 -4,6 -2,13 16,-17 31,-34 46,-51 44,-48 90,-63 130,-44 38,18 69,90 57,141 -7,33 -19,65 -34,95 -61,122 -147,227 -235,331 -86,100 -174,198 -258,299 -48,58 -94,119 -134,183 -56,91 -120,174 -201,246 -185,167 -370,334 -572,481 -102,75 -208,140 -327,182 -55,20 -106,47 -159,70 -12,5 -26,5 -40,7 -1,-4 -2,-8 -3,-12 44,-20 87,-43 132,-58 203,-68 374,-187 535,-322 166,-140 327,-286 489,-430 27,-24 52,-54 69,-85 95,-170 226,-311 352,-457 106,-123 216,-243 298,-384 27,-45 48,-95 66,-145 13,-38 -4,-73 -24,-105 -19,-30 -65,-32 -98,-5 -21,19 -39,42 -59,62 -122,124 -243,250 -367,373 -77,75 -142,159 -196,251 -6,10 -12,22 -19,32 -5,6 -14,10 -21,15 1,-8 -1,-19 3,-25 41,-62 80,-126 124,-186 28,-37 61,-70 95,-101 108,-95 199,-204 287,-318 108,-139 205,-285 302,-432 39,-59 12,-156 -53,-186 -35,-17 -70,-9 -99,23 -89,101 -176,204 -268,303 -128,137 -252,277 -399,395 -37,28 -63,70 -94,105 -5,6 -12,10 -18,15 -2,-2 -5,-4 -8,-6 5,-11 8,-23 15,-32 25,-30 48,-62 78,-86 207,-170 380,-373 558,-571 62,-69 125,-139 186,-210 21,-26 42,-53 56,-83 37,-78 -17,-171 -95,-169 -40,1 -77,12 -108,39 -255,214 -506,431 -737,671 -65,68 -139,127 -209,189 -10,9 -23,13 -36,20 -2,-3 -4,-5 -6,-8 3,-5 6,-12 11,-16 74,-65 153,-124 219,-195 182,-193 385,-362 579,-542 16,-14 28,-33 39,-52 22,-39 11,-75 -17,-107 -27,-31 -61,-44 -102,-34 -27,7 -55,14 -80,27 -100,52 -194,114 -277,191 -35,34 -73,64 -110,95 -59,52 -119,103 -179,155 -176,152 -353,301 -548,430 -149,99 -294,204 -440,307 -22,16 -41,36 -62,54 -7,6 -16,10 -24,15 -2,-3 -5,-5 -7,-8 7,-9 12,-19 21,-26 105,-80 209,-162 317,-240 148,-106 300,-209 450,-313 14,-10 26,-22 39,-33 26,-22 34,-49 20,-77 -12,-25 -39,-25 -61,-21 -35,8 -72,16 -104,32 -83,40 -168,69 -258,83 -57,8 -99,36 -131,83 -99,146 -208,283 -328,412 -10,11 -16,25 -21,39 -68,196 -137,393 -202,590 -13,37 -14,79 -16,118 -2,34 -16,54 -46,68 -55,25 -107,54 -161,81 -7,3 -17,0 -26,0 6,-7 10,-16 18,-20 56,-29 112,-57 168,-87 10,-5 24,-19 23,-29 -3,-122 54,-228 90,-339 43,-130 87,-259 132,-388 7,-20 18,-39 31,-54 108,-118 212,-241 299,-375 48,-73 109,-113 196,-128 71,-12 139,-45 209,-68 40,-13 78,-30 119,-38 60,-12 89,12 98,76 51,-41 101,-80 149,-121 125,-109 248,-222 375,-328 84,-69 174,-130 275,-172 88,-35 159,-11 194,67 10,23 7,52 11,80z"/>
  </g>
 </g>
</svg>
