<?xml version="1.0" encoding="UTF-8"?>
<!DOCTYPE svg PUBLIC "-//W3C//DTD SVG 1.1//EN" "http://www.w3.org/Graphics/SVG/1.1/DTD/svg11.dtd">
<!-- Creator: CorelDRAW X7 -->
<svg xmlns="http://www.w3.org/2000/svg" xml:space="preserve" width="43.3492mm" height="43.3492mm" version="1.1" style="shape-rendering:geometricPrecision; text-rendering:geometricPrecision; image-rendering:optimizeQuality; fill-rule:evenodd; clip-rule:evenodd"
viewBox="0 0 4335 4335"
 xmlns:xlink="http://www.w3.org/1999/xlink">
 <defs>
  <style type="text/css">
   <![CDATA[
    .str0 {stroke:white;stroke-width:66.15}
    .fil1 {fill:none}
    .fil0 {fill:maroon}
   ]]>
  </style>
 </defs>
 <g id="Слой_x0020_1">
  <metadata id="CorelCorpID_0Corel-Layer"/>
  <g id="_1641519939008">
   <path class="fil0 str0" d="M4295 2167c0,-1174 -953,-2127 -2128,-2127 -1174,0 -2127,953 -2127,2127 0,1175 953,2128 2127,2128 1175,0 2128,-953 2128,-2128z"/>
   <path class="fil1 str0" d="M1251 3683c1,5 2,10 3,14 12,-3 25,-3 35,-9 142,-91 286,-175 444,-236 114,-43 229,-83 333,-149 72,-47 149,-88 226,-124 111,-51 210,-116 295,-203 127,-131 268,-246 415,-353 55,-40 107,-85 159,-130 12,-10 18,-27 27,-41 21,-31 35,-68 62,-92 62,-55 77,-120 61,-197 -14,-63 -29,-127 -41,-191 -17,-93 -43,-182 -99,-259 -20,-27 -30,-54 -29,-87 0,-22 -10,-46 -21,-65 -52,-95 -115,-182 -191,-258 -15,-15 -16,-26 -13,-46 6,-31 16,-68 5,-95 -34,-88 -93,-153 -192,-173 -103,-20 -205,-15 -308,-5 -13,1 -29,0 -38,-7 -37,-26 -78,-27 -118,-15 -94,29 -175,81 -246,149 -7,6 -13,14 -17,22 -50,101 -128,180 -202,262 -125,139 -209,298 -251,480 -24,102 -49,204 -74,306 -7,30 -14,62 -31,85 -73,103 -166,180 -291,215 -62,18 -126,31 -187,54 -142,55 -282,114 -423,172 -8,3 -12,14 -18,21 3,3 6,5 9,8 9,-4 19,-7 28,-11 92,-39 183,-80 277,-116 91,-34 182,-72 276,-94 133,-31 236,-102 322,-203 22,-26 39,-60 49,-93 19,-60 31,-122 47,-183 24,-94 43,-189 74,-280 50,-149 139,-274 246,-389 48,-51 98,-104 131,-164 66,-119 171,-179 291,-221 33,-12 66,-7 96,13 13,9 32,12 47,12 73,-2 145,-10 217,-8 101,2 189,31 246,126 31,51 30,98 6,149 -45,-18 -91,-28 -124,-69 -14,-18 -45,-30 -69,-31 -51,-2 -103,5 -154,9 -20,2 -40,5 -59,7 -1,4 -1,7 -1,11 12,2 24,6 36,5 46,-4 92,-11 138,-15 54,-5 96,15 125,62 12,19 24,37 37,55 8,13 18,27 29,37 5,5 15,5 23,7 -2,-7 -4,-14 -8,-20 -13,-18 -26,-36 -39,-53 2,-3 5,-5 7,-8 28,15 62,25 84,46 78,77 143,166 194,263 9,17 11,38 16,58 -5,2 -9,4 -13,7 -24,-28 -52,-54 -69,-85 -26,-48 -62,-75 -115,-84 -42,-6 -84,-18 -126,-27 -3,0 -8,2 -21,4 14,11 21,20 30,22 32,8 65,16 98,20 60,5 100,33 122,89 11,29 25,56 40,83 5,9 14,17 22,25 3,-2 6,-4 9,-5 -5,-13 -10,-26 -16,-41 61,49 137,180 140,242 -8,-12 -14,-22 -20,-32 -4,2 -7,3 -11,4 3,12 3,27 10,37 36,51 56,105 42,168 -4,19 1,34 27,21 6,26 11,50 16,74 19,76 3,140 -61,191 -20,17 -40,41 -48,65 -12,42 -39,71 -71,97 -27,22 -53,45 -81,65 -171,122 -332,255 -479,405 -65,66 -141,116 -224,156 -87,43 -170,91 -256,135 -75,39 -149,78 -225,113 -49,23 -101,40 -152,60 -157,60 -297,151 -440,236z"/>
   <path class="fil1 str0" d="M1251 3683c143,-85 283,-176 440,-237 51,-19 103,-36 152,-59 76,-36 151,-74 225,-113 86,-44 170,-92 256,-135 83,-40 160,-91 224,-156 147,-150 309,-283 479,-405 28,-20 54,-43 81,-65 32,-26 59,-55 72,-97 7,-25 27,-48 47,-65 64,-51 80,-115 61,-192 -5,-23 -10,-47 -16,-73 -26,13 -31,-2 -27,-21 14,-63 -6,-118 -42,-169 -7,-9 -7,-24 -10,-36 4,-1 8,-3 11,-4 6,10 12,19 20,32 -3,-63 -79,-193 -140,-242 6,15 11,28 16,41 -3,1 -6,3 -9,5 -7,-9 -17,-16 -22,-26 -15,-26 -29,-53 -40,-82 -22,-56 -62,-84 -122,-90 -33,-3 -66,-11 -98,-19 -9,-2 -16,-11 -30,-22 14,-2 18,-4 21,-4 42,9 84,20 126,27 53,9 89,36 115,83 17,32 45,57 69,86 4,-3 9,-5 13,-8 -5,-19 -7,-40 -16,-57 -51,-97 -116,-186 -194,-263 -22,-21 -55,-31 -84,-46 -2,2 -4,5 -7,8 13,17 26,35 39,53 4,5 6,13 8,20 -8,-2 -18,-2 -23,-7 -11,-11 -20,-24 -29,-37 -13,-18 -25,-36 -37,-55 -29,-47 -71,-67 -125,-62 -46,4 -92,10 -138,15 -12,1 -24,-3 -36,-5 0,-4 1,-8 1,-11 20,-3 39,-5 59,-7 51,-4 103,-11 154,-9 24,1 55,13 69,31 33,41 80,51 124,69 24,-52 25,-98 -6,-149 -57,-95 -145,-124 -246,-127 -72,-1 -144,7 -217,9 -15,0 -34,-3 -46,-12 -31,-20 -64,-25 -97,-13 -120,42 -225,101 -291,220 -33,61 -83,114 -131,165 -107,115 -196,240 -246,389 -31,91 -50,186 -74,280 -16,61 -28,123 -46,183 -11,33 -27,67 -50,93 -86,101 -189,172 -322,203 -94,22 -185,59 -276,94 -93,36 -185,77 -277,116 -9,4 -19,7 -28,11 -3,-3 -6,-5 -8,-8 5,-7 10,-18 17,-21 141,-58 281,-117 423,-172 61,-23 125,-36 188,-54 124,-35 217,-112 290,-215 17,-23 24,-56 31,-85 26,-102 50,-204 74,-306 42,-182 126,-342 252,-481 73,-82 151,-160 201,-261 4,-9 11,-16 17,-23 71,-68 152,-120 246,-148 40,-12 81,-11 118,15 9,7 25,8 38,7 103,-10 205,-15 308,5 99,20 158,85 192,173 11,27 1,64 -5,95 -3,19 -2,31 13,46 77,76 140,163 191,257 11,20 21,44 21,65 -1,34 10,61 29,88 56,77 82,166 99,259 12,64 27,127 41,191 16,77 2,142 -61,197 -26,23 -41,61 -62,92 -9,14 -15,31 -27,41 -52,45 -104,90 -159,130 -147,107 -288,222 -415,353 -85,87 -184,152 -294,203 -78,36 -155,77 -227,123 -104,67 -219,107 -332,150 -159,61 -303,145 -445,236 -10,6 -23,6 -35,9 -1,-4 -2,-9 -3,-14z"/>
  </g>
 </g>
</svg>
