<?xml version="1.0" encoding="UTF-8"?>
<!DOCTYPE svg PUBLIC "-//W3C//DTD SVG 1.1//EN" "http://www.w3.org/Graphics/SVG/1.1/DTD/svg11.dtd">
<!-- Creator: CorelDRAW X7 -->
<svg xmlns="http://www.w3.org/2000/svg" xml:space="preserve" width="43.3492mm" height="43.3492mm" version="1.1" style="shape-rendering:geometricPrecision; text-rendering:geometricPrecision; image-rendering:optimizeQuality; fill-rule:evenodd; clip-rule:evenodd"
viewBox="0 0 4335 4335"
 xmlns:xlink="http://www.w3.org/1999/xlink">
 <defs>
  <style type="text/css">
   <![CDATA[
    .str0 {stroke:white;stroke-width:67.73}
    .fil1 {fill:none}
    .fil0 {fill:green}
   ]]>
  </style>
 </defs>
 <g id="Слой_x0020_1">
  <metadata id="CorelCorpID_0Corel-Layer"/>
  <g id="_1641564725904">
   <path class="fil0 str0" d="M4297 2167c0,-1176 -954,-2129 -2130,-2129 -1176,0 -2129,953 -2129,2129 0,1176 953,2130 2129,2130 1176,0 2130,-954 2130,-2130z"/>
   <path class="fil1 str0" d="M1393 3590c1,5 3,9 4,13 12,-2 25,-2 35,-7 54,-29 107,-59 161,-87 14,-8 29,-12 44,-17 36,-10 75,-14 108,-31 76,-38 151,-79 223,-124 189,-119 349,-275 521,-416 8,-6 15,-19 16,-29 4,-32 24,-51 50,-64 36,-19 71,-37 108,-52 129,-50 182,-226 83,-322 -16,-16 -13,-30 -2,-48 20,-29 38,-58 54,-89 21,-38 26,-80 11,-122 -20,-56 -65,-92 -114,-122 -38,-24 -77,-45 -124,-25 -6,3 -18,-7 -26,-10 3,-8 5,-19 11,-24 19,-14 39,-29 60,-40 139,-76 277,-151 402,-253 140,-113 297,-207 447,-309 37,-25 75,-50 110,-78 14,-11 25,-30 28,-47 18,-87 -63,-192 -168,-162 -103,30 -204,65 -296,122 -47,29 -96,52 -145,78 -176,95 -359,180 -517,307 -30,24 -63,42 -94,64 -22,14 -37,8 -47,-15 -23,-50 -21,-100 -4,-151 32,-92 58,-187 96,-277 67,-158 142,-312 212,-468 20,-44 40,-89 52,-135 13,-51 -2,-99 -46,-133 -42,-32 -90,-28 -133,-2 -28,17 -55,40 -74,67 -154,218 -311,435 -420,681 -33,74 -66,148 -103,220 -23,42 -51,82 -83,117 -39,42 -69,86 -94,137 -20,40 -47,77 -75,112 -44,55 -95,104 -138,160 -162,209 -320,420 -482,630 -18,24 -44,45 -71,60 -83,44 -169,84 -254,126 -7,3 -14,8 -21,12 1,3 1,7 2,11 9,-1 19,1 27,-3 85,-41 170,-84 255,-125 34,-16 61,-40 83,-71 39,-55 80,-108 120,-162 157,-212 312,-424 491,-618 36,-38 64,-80 86,-127 18,-37 39,-76 68,-105 52,-50 91,-107 120,-172 16,-37 35,-72 50,-109 110,-270 276,-508 443,-744 21,-30 49,-60 80,-78 74,-43 145,-3 151,82 2,23 -5,48 -14,70 -21,50 -44,100 -70,148 -120,225 -202,464 -282,705 -18,53 -14,106 12,156 17,35 35,41 68,21 41,-24 80,-51 118,-79 92,-67 186,-130 288,-181 125,-62 246,-129 367,-198 89,-50 185,-83 283,-113 76,-23 148,55 140,127 -2,18 -14,39 -28,50 -48,36 -101,68 -151,103 -139,96 -283,187 -416,291 -94,75 -192,140 -298,194 -33,16 -66,33 -97,52 -22,13 -43,28 -61,45 -7,7 -14,25 -10,33 6,12 20,23 33,29 8,4 20,-2 31,-2 20,1 44,-4 60,6 40,23 79,49 111,80 45,44 51,99 22,154 -19,36 -42,70 -65,108 -37,-30 -71,-57 -105,-85 -4,-3 -10,-4 -15,-7 0,7 -4,16 -1,19 12,13 26,24 39,37 35,33 75,64 105,102 58,71 46,177 -23,238 -6,5 -13,12 -18,11 -55,-5 -99,15 -134,55 -29,33 -77,53 -80,107 0,8 -10,15 -18,21 -92,79 -182,159 -278,234 -175,138 -349,279 -576,333 -77,19 -146,73 -218,110z"/>
   <path class="fil1 str0" d="M1393 3590c72,-37 141,-91 218,-110 227,-54 400,-195 576,-333 95,-75 186,-155 278,-234 7,-6 18,-13 18,-21 3,-54 51,-74 80,-107 34,-40 79,-60 134,-55 5,1 12,-6 18,-11 69,-61 81,-167 23,-238 -30,-38 -70,-69 -105,-102 -13,-13 -27,-24 -39,-37 -3,-3 0,-12 1,-18 5,2 11,3 15,6 34,28 68,55 105,85 23,-38 46,-72 65,-108 29,-55 23,-110 -22,-154 -32,-31 -72,-57 -111,-80 -16,-10 -40,-5 -60,-6 -11,0 -23,6 -31,2 -13,-6 -27,-17 -33,-29 -4,-8 2,-25 10,-33 18,-17 39,-32 60,-45 32,-19 65,-36 98,-52 106,-54 204,-119 298,-194 133,-104 277,-195 416,-291 50,-35 102,-67 151,-103 14,-11 26,-32 28,-50 8,-72 -65,-150 -140,-127 -98,30 -194,63 -283,113 -121,69 -242,136 -367,198 -102,51 -196,114 -288,181 -38,28 -77,55 -118,79 -33,20 -51,14 -69,-21 -26,-50 -29,-103 -11,-156 80,-241 162,-480 282,-705 26,-48 49,-98 70,-148 9,-22 15,-47 14,-70 -6,-85 -77,-125 -151,-82 -31,18 -59,47 -80,78 -167,236 -333,474 -443,744 -15,37 -34,72 -50,109 -29,65 -68,122 -120,172 -29,29 -50,68 -68,105 -23,47 -50,89 -86,127 -179,194 -334,406 -491,618 -40,54 -81,107 -121,162 -22,31 -48,55 -82,71 -85,41 -170,84 -255,125 -8,4 -18,2 -27,3 -1,-4 -1,-8 -2,-11 7,-4 14,-9 21,-12 85,-42 171,-82 254,-126 27,-15 52,-36 71,-60 161,-210 320,-421 482,-630 43,-56 94,-105 138,-160 28,-35 55,-72 75,-112 25,-51 55,-95 94,-137 32,-35 60,-75 83,-117 37,-72 70,-146 103,-220 109,-246 265,-463 420,-681 19,-27 46,-50 74,-67 43,-26 91,-30 133,2 43,34 59,82 46,133 -12,46 -33,91 -52,135 -71,156 -145,310 -212,468 -38,90 -64,185 -96,277 -17,51 -19,101 3,151 11,23 26,29 48,15 31,-21 64,-40 94,-64 157,-127 340,-212 517,-307 48,-26 98,-49 144,-78 93,-57 194,-92 297,-122 104,-30 185,75 168,162 -3,17 -15,36 -28,47 -35,28 -73,53 -111,78 -149,102 -306,196 -446,309 -125,102 -263,177 -402,253 -21,11 -41,26 -60,40 -6,5 -8,16 -12,24 9,3 20,13 27,10 47,-20 86,1 124,25 49,30 93,66 114,122 15,42 10,84 -11,122 -16,31 -35,60 -54,89 -12,18 -14,32 2,48 99,96 46,272 -83,322 -37,15 -73,33 -108,52 -26,13 -46,32 -50,64 -1,10 -8,23 -17,29 -171,141 -331,297 -520,416 -72,45 -147,86 -223,124 -33,17 -72,21 -108,32 -15,4 -30,8 -44,16 -54,28 -107,58 -161,87 -10,5 -23,5 -35,7 -1,-4 -3,-8 -4,-13z"/>
  </g>
 </g>
</svg>
